<?xml version="1.0" standalone="no"?>
<!DOCTYPE svg PUBLIC "-//W3C//DTD SVG 1.1//EN" "http://www.w3.org/Graphics/SVG/1.1/DTD/svg11.dtd">
<!-- Created with WaveDrom -->
<svg xmlns="http://www.w3.org/2000/svg" xmlns:xlink="http://www.w3.org/1999/xlink" width="555" height="42" viewBox="0 0 555 42" class="WaveDrom"><g transform="translate(0.5,0.5)" text-anchor="middle" font-size="14" font-family="sans-serif" font-weight="normal"><g transform="translate(4,14)"><g stroke="black" stroke-width="1" stroke-linecap="round"><line x2="546"/><line y2="26"/><line x2="546" y1="26" y2="26"/><line x1="546" x2="546" y2="26"/><line x1="529" x2="529" y2="3"/><line x1="529" x2="529" y1="26" y2="23"/><line x1="512" x2="512" y2="3"/><line x1="512" x2="512" y1="26" y2="23"/><line x1="495" x2="495" y2="3"/><line x1="495" x2="495" y1="26" y2="23"/><line x1="478" x2="478" y2="3"/><line x1="478" x2="478" y1="26" y2="23"/><line x1="461" x2="461" y2="3"/><line x1="461" x2="461" y1="26" y2="23"/><line x1="444" x2="444" y2="3"/><line x1="444" x2="444" y1="26" y2="23"/><line x1="427" x2="427" y2="3"/><line x1="427" x2="427" y1="26" y2="23"/><line x1="410" x2="410" y2="3"/><line x1="410" x2="410" y1="26" y2="23"/><line x1="392" x2="392" y2="3"/><line x1="392" x2="392" y1="26" y2="23"/><line x1="375" x2="375" y2="3"/><line x1="375" x2="375" y1="26" y2="23"/><line x1="358" x2="358" y2="3"/><line x1="358" x2="358" y1="26" y2="23"/><line x1="341" x2="341" y2="3"/><line x1="341" x2="341" y1="26" y2="23"/><line x1="324" x2="324" y2="3"/><line x1="324" x2="324" y1="26" y2="23"/><line x1="307" x2="307" y2="3"/><line x1="307" x2="307" y1="26" y2="23"/><line x1="290" x2="290" y2="3"/><line x1="290" x2="290" y1="26" y2="23"/><line x1="273" x2="273" y2="3"/><line x1="273" x2="273" y1="26" y2="23"/><line x1="256" x2="256" y2="3"/><line x1="256" x2="256" y1="26" y2="23"/><line x1="239" x2="239" y2="3"/><line x1="239" x2="239" y1="26" y2="23"/><line x1="222" x2="222" y2="3"/><line x1="222" x2="222" y1="26" y2="23"/><line x1="205" x2="205" y2="3"/><line x1="205" x2="205" y1="26" y2="23"/><line x1="188" x2="188" y2="3"/><line x1="188" x2="188" y1="26" y2="23"/><line x1="171" x2="171" y2="3"/><line x1="171" x2="171" y1="26" y2="23"/><line x1="154" x2="154" y2="26"/><line x1="137" x2="137" y2="3"/><line x1="137" x2="137" y1="26" y2="23"/><line x1="119" x2="119" y2="3"/><line x1="119" x2="119" y1="26" y2="23"/><line x1="102" x2="102" y2="3"/><line x1="102" x2="102" y1="26" y2="23"/><line x1="85" x2="85" y2="3"/><line x1="85" x2="85" y1="26" y2="23"/><line x1="68" x2="68" y2="26"/><line x1="51" x2="51" y2="3"/><line x1="51" x2="51" y1="26" y2="23"/><line x1="34" x2="34" y2="3"/><line x1="34" x2="34" y1="26" y2="23"/><line x1="17" x2="17" y2="3"/><line x1="17" x2="17" y1="26" y2="23"/></g><g><g/><g transform="translate(9,-9)"><g transform="translate(529)"><text y="6">0</text></g><g transform="translate(154)"><text y="6">22</text></g><g transform="translate(137)"><text y="6">23</text></g><g transform="translate(68)"><text y="6">27</text></g><g transform="translate(51)"><text y="6">28</text></g><g transform="translate(0)"><text y="6">31</text></g></g><g transform="translate(9,13)"><g transform="translate(341)"><text y="6"><tspan>Parameters</tspan></text></g><g transform="translate(102)"><text y="6"><tspan>Opcode</tspan></text></g><g transform="translate(26)"><text y="6"><tspan>Op Group</tspan></text></g></g><g transform="translate(9,33)"/></g></g></g></svg>