<?xml version="1.0" standalone="no"?>
<!DOCTYPE svg PUBLIC "-//W3C//DTD SVG 1.1//EN" "http://www.w3.org/Graphics/SVG/1.1/DTD/svg11.dtd">
<!-- Created with WaveDrom -->
<svg xmlns="http://www.w3.org/2000/svg" xmlns:xlink="http://www.w3.org/1999/xlink" width="444" height="42" viewBox="0 0 444 42" class="WaveDrom"><g transform="translate(0.5,0.5)" text-anchor="middle" font-size="14" font-family="sans-serif" font-weight="normal"><g transform="translate(4,14)"><g stroke="black" stroke-width="1" stroke-linecap="round"><line x2="435"/><line y2="26"/><line x2="435" y1="26" y2="26"/><line x1="435" x2="435" y2="26"/><line x1="381" x2="381" y2="3"/><line x1="381" x2="381" y1="26" y2="23"/><line x1="326" x2="326" y2="3"/><line x1="326" x2="326" y1="26" y2="23"/><line x1="272" x2="272" y2="3"/><line x1="272" x2="272" y1="26" y2="23"/><line x1="218" x2="218" y2="3"/><line x1="218" x2="218" y1="26" y2="23"/><line x1="163" x2="163" y2="26"/><line x1="109" x2="109" y2="3"/><line x1="109" x2="109" y1="26" y2="23"/><line x1="54" x2="54" y2="3"/><line x1="54" x2="54" y1="26" y2="23"/></g><g><g/><g transform="translate(27,-3)"><text x="381">0</text><text x="163">4</text><text x="109">5</text><text>7</text></g><g transform="translate(27,18)"><text x="272"><tspan>Metadata</tspan></text><text x="54"><tspan>Destination</tspan></text></g><g transform="translate(27,39)"/></g></g></g></svg>